<svg width="20" height="20" viewBox="0 0 20 20" fill="none" xmlns="http://www.w3.org/2000/svg">
<path d="M4.58333 17.0832C4.1231 17.0832 3.75 16.7101 3.75 16.2499V3.74988C3.75 3.28964 4.1231 2.91652 4.58333 2.91652H9.9C10.2168 2.91434 10.5074 3.09196 10.65 3.37488L11.25 4.58321H15.4167C15.8769 4.58321 16.25 4.95631 16.25 5.41654V12.0832C16.25 12.5434 15.8769 12.9165 15.4167 12.9165H10.925C10.6112 12.9156 10.3245 12.7384 10.1833 12.4582L9.58333 11.2499H5.41667V16.2499C5.41667 16.7101 5.04357 17.0832 4.58333 17.0832ZM5.41667 4.58321V9.58321H10.4167L11.25 11.2499H14.5833V6.24988H10.4167L9.58333 4.58321H5.41667Z" fill="#60626E"/>
</svg>
