<svg width="31" height="30" viewBox="0 0 31 30" fill="none" xmlns="http://www.w3.org/2000/svg">
<circle cx="15.4907" cy="15" r="15" fill="#3C009E" fill-opacity="0.5"/>
<path opacity="0.4" d="M15.8649 23C15.4438 23.0012 15.0398 22.8338 14.743 22.5351L8.52517 16.3188C8.19708 15.9918 8.02888 15.5373 8.065 15.0755L8.4617 9.86607C8.51836 9.08194 9.14356 8.45912 9.9279 8.40543L15.1374 8.00873C15.1786 8 15.2191 8 15.2603 8C15.6806 7.9995 16.0836 8.16688 16.3798 8.46493L22.5977 14.6804C22.8954 14.978 23.0627 15.3817 23.0627 15.8027C23.0627 16.2236 22.8954 16.6273 22.5977 16.9249L16.9868 22.5351C16.6899 22.8336 16.2859 23.001 15.8649 23ZM12.4985 10.8499C11.7803 10.8501 11.1518 11.3326 10.9661 12.0264C10.7804 12.7201 11.0838 13.4521 11.7058 13.811C12.3279 14.17 13.1134 14.0664 13.6212 13.5585L13.6267 13.5538L13.6323 13.5482L13.6259 13.5538C14.0769 13.0988 14.2101 12.4173 13.9636 11.826C13.717 11.2347 13.1391 10.8497 12.4985 10.8499Z" fill="white"/>
</svg>
