<svg width="31" height="30" viewBox="0 0 31 30" fill="none" xmlns="http://www.w3.org/2000/svg">
<circle cx="15.4907" cy="15" r="15" fill="#20A044" fill-opacity="0.25"/>
<path d="M23.7986 14.6372C23.0473 11.3687 21.9168 9.62415 20.2397 9.14763C19.8872 9.04812 19.5215 8.9984 19.1541 9.00004C18.6685 9.00004 18.2456 9.11389 17.7983 9.23455C17.2592 9.3801 16.6468 9.54541 15.7539 9.54541C14.861 9.54541 14.2483 9.38044 13.7081 9.23489C13.2604 9.11389 12.8379 9.00004 12.3537 9.00004C11.9738 8.99877 11.5956 9.04833 11.2299 9.14729C9.56166 9.62177 8.4318 11.3656 7.66959 14.6351C6.85 18.1535 7.25342 20.3749 8.80086 20.8902C9.01298 20.9622 9.23616 20.9993 9.46107 21C10.5211 21 11.3712 20.1502 11.9521 19.4545C12.6084 18.6672 13.3766 18.2677 15.7539 18.2677C17.8773 18.2677 18.756 18.5448 19.515 19.4545C19.9921 20.0265 20.443 20.4267 20.8928 20.6786C21.491 21.0133 22.0889 21.0876 22.6694 20.8957C23.5839 20.5954 24.1081 19.8015 24.2278 18.5356C24.3189 17.5648 24.1786 16.2897 23.7986 14.6372ZM14.0538 14.4538H12.9204V15.5445C12.9204 15.6892 12.8607 15.8279 12.7544 15.9302C12.6482 16.0325 12.504 16.0899 12.3537 16.0899C12.2034 16.0899 12.0593 16.0325 11.953 15.9302C11.8467 15.8279 11.787 15.6892 11.787 15.5445V14.4538H10.6536C10.5033 14.4538 10.3592 14.3963 10.2529 14.2941C10.1466 14.1918 10.0869 14.0531 10.0869 13.9084C10.0869 13.7638 10.1466 13.6251 10.2529 13.5228C10.3592 13.4205 10.5033 13.363 10.6536 13.363H11.787V12.2723C11.787 12.1276 11.8467 11.9889 11.953 11.8867C12.0593 11.7844 12.2034 11.7269 12.3537 11.7269C12.504 11.7269 12.6482 11.7844 12.7544 11.8867C12.8607 11.9889 12.9204 12.1276 12.9204 12.2723V13.363H14.0538C14.2041 13.363 14.3483 13.4205 14.4545 13.5228C14.5608 13.6251 14.6205 13.7638 14.6205 13.9084C14.6205 14.0531 14.5608 14.1918 14.4545 14.2941C14.3483 14.3963 14.2041 14.4538 14.0538 14.4538ZM17.029 14.5901C16.8889 14.5901 16.7519 14.5502 16.6354 14.4752C16.5189 14.4003 16.4281 14.2939 16.3745 14.1693C16.3209 14.0447 16.3069 13.9077 16.3342 13.7754C16.3616 13.6432 16.429 13.5217 16.5281 13.4264C16.6272 13.331 16.7534 13.2661 16.8908 13.2398C17.0282 13.2135 17.1706 13.227 17.3001 13.2786C17.4295 13.3302 17.5401 13.4176 17.618 13.5297C17.6958 13.6418 17.7374 13.7736 17.7374 13.9084C17.7374 14.0892 17.6627 14.2626 17.5299 14.3905C17.397 14.5183 17.2169 14.5901 17.029 14.5901ZM18.5874 16.0899C18.4472 16.0899 18.3102 16.0499 18.1937 15.9749C18.0771 15.8999 17.9863 15.7934 17.9328 15.6687C17.8792 15.544 17.8653 15.4069 17.8928 15.2746C17.9203 15.1423 17.9879 15.0208 18.0871 14.9255C18.1864 14.8303 18.3128 14.7655 18.4503 14.7394C18.5878 14.7133 18.7303 14.727 18.8597 14.7789C18.9891 14.8307 19.0996 14.9184 19.1773 15.0307C19.2549 15.143 19.2961 15.275 19.2958 15.4099C19.2953 15.5904 19.2205 15.7634 19.0877 15.8908C18.9549 16.0183 18.775 16.0899 18.5874 16.0899ZM18.5874 13.0904C18.4473 13.0904 18.3103 13.0504 18.1939 12.9755C18.0774 12.9006 17.9866 12.7941 17.933 12.6695C17.8793 12.5449 17.8653 12.4079 17.8926 12.2756C17.92 12.1434 17.9874 12.0219 18.0865 11.9266C18.1856 11.8312 18.3118 11.7663 18.4492 11.74C18.5866 11.7137 18.729 11.7272 18.8585 11.7788C18.9879 11.8304 19.0986 11.9178 19.1764 12.0299C19.2542 12.142 19.2958 12.2738 19.2958 12.4086C19.2958 12.5894 19.2211 12.7628 19.0883 12.8907C18.9555 13.0185 18.7753 13.0904 18.5874 13.0904ZM20.1458 14.5901C20.0057 14.5901 19.8688 14.5502 19.7523 14.4752C19.6358 14.4003 19.545 14.2939 19.4914 14.1693C19.4378 14.0447 19.4237 13.9077 19.4511 13.7754C19.4784 13.6432 19.5459 13.5217 19.6449 13.4264C19.744 13.331 19.8702 13.2661 20.0076 13.2398C20.145 13.2135 20.2875 13.227 20.4169 13.2786C20.5463 13.3302 20.657 13.4176 20.7348 13.5297C20.8127 13.6418 20.8542 13.7736 20.8542 13.9084C20.8542 14.0892 20.7796 14.2626 20.6467 14.3905C20.5139 14.5183 20.3337 14.5901 20.1458 14.5901Z" fill="url(#paint0_linear)"/>
<defs>
<linearGradient id="paint0_linear" x1="15.7546" y1="9" x2="15.7546" y2="21" gradientUnits="userSpaceOnUse">
<stop stop-color="#22B04A"/>
<stop offset="1" stop-color="#1E9540"/>
</linearGradient>
</defs>
</svg>
