<svg width="31" height="30" viewBox="0 0 31 30" fill="none" xmlns="http://www.w3.org/2000/svg">
<circle cx="15.4907" cy="15" r="15" fill="#9CC741"/>
<path opacity="0.4" d="M15.4907 22.5C11.3486 22.5 7.99072 19.1421 7.99072 15C7.99072 10.8579 11.3486 7.5 15.4907 7.5C19.6329 7.5 22.9907 10.8579 22.9907 15C22.9862 19.1403 19.631 22.4955 15.4907 22.5ZM15.4907 9C12.177 9 9.49072 11.6863 9.49072 15C9.49072 18.3137 12.177 21 15.4907 21C18.8044 21 21.4907 18.3137 21.4907 15C21.487 11.6878 18.8029 9.00372 15.4907 9ZM15.4907 19.5C14.3057 19.5201 13.1857 18.96 12.4907 18C12.1533 17.5487 11.8993 17.0407 11.7407 16.5H19.2407C19.2407 16.5 19.2407 16.5 19.2407 16.506C19.0797 17.0439 18.8259 17.5495 18.4907 18C17.7957 18.9599 16.6757 19.5199 15.4907 19.5ZM12.8657 15C12.2444 15 11.7407 14.4963 11.7407 13.875C11.7407 13.2537 12.2444 12.75 12.8657 12.75C13.487 12.75 13.9907 13.2537 13.9907 13.875C13.9907 14.4963 13.487 15 12.8657 15ZM18.1105 14.9895C17.4921 14.9895 16.9907 14.4882 16.9907 13.8698C16.9907 13.2513 17.4921 12.75 18.1105 12.75C18.7289 12.75 19.2302 13.2513 19.2302 13.8698C19.2294 14.4878 18.7286 14.9887 18.1105 14.9895Z" fill="white"/>
</svg>
