<svg width="31" height="30" viewBox="0 0 31 30" fill="none" xmlns="http://www.w3.org/2000/svg">
<rect x="0.490723" width="30" height="30" rx="15" fill="#00A0FF" fill-opacity="0.5"/>
<path d="M11.9516 22C12.4035 22 12.7698 21.7229 12.7698 21.381C12.7698 21.0391 12.4035 20.762 11.9516 20.762C11.4997 20.762 11.1334 21.0391 11.1334 21.381C11.1334 21.7229 11.4997 22 11.9516 22Z" stroke="white" stroke-width="2" stroke-linecap="round" stroke-linejoin="round"/>
<path d="M20.9509 22C21.4027 22 21.7691 21.7229 21.7691 21.381C21.7691 21.0391 21.4027 20.762 20.9509 20.762C20.499 20.762 20.1327 21.0391 20.1327 21.381C20.1327 21.7229 20.499 22 20.9509 22Z" stroke="white" stroke-width="2" stroke-linecap="round" stroke-linejoin="round"/>
<path d="M5.40521 9H8.49612L10.567 17.0338C10.6377 17.31 10.8312 17.5582 11.1138 17.7348C11.3963 17.9114 11.7498 18.0052 12.1125 17.9998H19.6234C19.986 18.0052 20.3396 17.9114 20.6221 17.7348C20.9046 17.5582 21.0982 17.31 21.1688 17.0338L22.4052 11.9999H9.26885" stroke="white" stroke-width="2" stroke-linecap="round" stroke-linejoin="round"/>
</svg>
