<svg width="31" height="30" viewBox="0 0 31 30" fill="none" xmlns="http://www.w3.org/2000/svg">
<circle cx="15.4907" cy="15" r="15" fill="#F68D3E" fill-opacity="0.25"/>
<path d="M24.7506 19.2182L20.4865 15.2969V12.3896C20.487 12.3012 20.4686 12.2136 20.4322 12.1318C20.3958 12.05 20.3422 11.9756 20.2744 11.9128L12.9602 5.19837C12.8922 5.13544 12.8114 5.08548 12.7222 5.05139C12.6331 5.01731 12.5375 4.99976 12.4409 4.99976C12.3444 4.99976 12.2488 5.01731 12.1597 5.05139C12.0705 5.08548 11.9896 5.13544 11.9216 5.19837L5.33891 11.2414C5.27036 11.3038 5.21594 11.3781 5.17881 11.4599C5.14168 11.5417 5.12256 11.6295 5.12256 11.7181C5.12256 11.8068 5.14168 11.8945 5.17881 11.9763C5.21594 12.0582 5.27036 12.1324 5.33891 12.1949L12.653 18.9093C12.7214 18.9716 12.8024 19.0208 12.8916 19.0542C12.9807 19.0876 13.0761 19.1046 13.1724 19.104H16.3467L20.6108 23.0253C21.1598 23.5293 21.9044 23.8124 22.6807 23.8124C23.4571 23.8124 24.2017 23.5293 24.7506 23.0253C25.2996 22.5213 25.608 21.8378 25.608 21.1251C25.608 20.4124 25.2996 19.7289 24.7506 19.2249V19.2182ZM8.05246 10.6505L9.72739 12.1949L10.766 11.2414L9.08375 9.70378L10.2467 8.63618L13.3845 11.5234L14.4231 10.5699L11.278 7.68944L12.4409 6.62184L17.261 11.0467L11.7095 16.143L6.88951 11.7181L8.05246 10.6505ZM23.712 22.0651C23.4379 22.3152 23.0672 22.4556 22.6807 22.4556C22.2943 22.4556 21.9235 22.3152 21.6494 22.0651L17.1659 17.9559C17.01 17.8575 16.8329 17.7911 16.6466 17.7612H13.4722L12.7408 17.0897L18.2923 11.9934L19.0237 12.6649V15.5789C19.0245 15.7551 19.1007 15.9239 19.2358 16.049L23.712 20.1716C23.9845 20.4233 24.1374 20.7636 24.1374 21.1184C24.1374 21.4732 23.9845 21.8135 23.712 22.0651Z" fill="url(#paint0_linear)"/>
<path d="M23.712 22.0651C23.4379 22.3152 23.0672 22.4556 22.6807 22.4556C22.2943 22.4556 21.9235 22.3152 21.6494 22.0651L17.1659 17.9559C17.01 17.8575 16.8329 17.7911 16.6466 17.7612H13.4722L12.7408 17.0897L18.2923 11.9934L19.0237 12.6649V15.5789C19.0245 15.7551 19.1007 15.9239 19.2358 16.049L23.712 20.1716C23.9845 20.4233 24.1374 20.7636 24.1374 21.1184C24.1374 21.4732 23.9845 21.8135 23.712 22.0651Z" fill="url(#paint1_linear)"/>
<defs>
<linearGradient id="paint0_linear" x1="15.3653" y1="4.99976" x2="15.3653" y2="23.8124" gradientUnits="userSpaceOnUse">
<stop stop-color="#FFA764"/>
<stop offset="1" stop-color="#F17F29"/>
</linearGradient>
<linearGradient id="paint1_linear" x1="15.3653" y1="4.99976" x2="15.3653" y2="23.8124" gradientUnits="userSpaceOnUse">
<stop stop-color="#FFA764"/>
<stop offset="1" stop-color="#F17F29"/>
</linearGradient>
</defs>
</svg>
