<svg width="30" height="30" viewBox="0 0 30 30" fill="none" xmlns="http://www.w3.org/2000/svg">
<circle cx="15" cy="15" r="15" fill="url(#paint0_linear)"/>
<path d="M12.6343 23.7811C12.6343 24.078 12.3968 24.2462 12.1197 24.1571C8.28011 22.9301 5.50928 19.3478 5.50928 15.1024C5.50928 10.867 8.28011 7.27485 12.1197 6.04776C12.4067 5.9587 12.6343 6.12693 12.6343 6.4238V7.16599C12.6343 7.36391 12.4858 7.59151 12.2978 7.66078C9.2598 8.77901 7.09261 11.6983 7.09261 15.1024C7.09261 18.5165 9.2598 21.4259 12.2978 22.5342C12.4858 22.6035 12.6343 22.8311 12.6343 23.029V23.7811Z" fill="white"/>
<path d="M15.8009 20.9962C15.8009 21.2139 15.6228 21.392 15.4051 21.392H14.6134C14.3957 21.392 14.2176 21.2139 14.2176 20.9962V19.7493C12.4858 19.5118 11.6446 18.5519 11.417 17.2259C11.3774 16.9983 11.5556 16.8003 11.7832 16.8003H12.6837C12.8717 16.8003 13.0301 16.9389 13.0696 17.117C13.2379 17.8988 13.6931 18.5024 15.0785 18.5024C16.0978 18.5024 16.8301 17.9285 16.8301 17.0774C16.8301 16.2264 16.4045 15.8998 14.9004 15.6524C12.6837 15.3555 11.6347 14.6826 11.6347 12.9509C11.6347 11.6149 12.654 10.566 14.2176 10.3483V9.12118C14.2176 8.90347 14.3957 8.72534 14.6134 8.72534H15.4051C15.6228 8.72534 15.8009 8.90347 15.8009 9.12118V10.3779C17.0774 10.6055 17.8889 11.3279 18.1561 12.5352C18.2056 12.7628 18.0274 12.9707 17.7899 12.9707H16.9587C16.7806 12.9707 16.6321 12.8519 16.5827 12.6837C16.3551 11.9217 15.8108 11.5852 14.8608 11.5852C13.8118 11.5852 13.2676 12.0899 13.2676 12.8024C13.2676 13.5545 13.5743 13.9305 15.1873 14.1582C17.3644 14.455 18.4926 15.0785 18.4926 16.929C18.4926 18.3342 17.4436 19.4722 15.8108 19.7295V20.9962H15.8009Z" fill="white"/>
<path d="M17.8989 24.1134C17.6119 24.2025 17.3843 24.0343 17.3843 23.7374V22.9952C17.3843 22.7775 17.5129 22.5697 17.7207 22.5004C20.7489 21.3921 22.9259 18.4728 22.9259 15.0686C22.9259 11.6546 20.7588 8.74519 17.7207 7.63686C17.5327 7.56759 17.3843 7.33998 17.3843 7.14207V6.39988C17.3843 6.103 17.6218 5.93477 17.8989 6.02384C21.7384 7.23113 24.5093 10.8233 24.5093 15.0587C24.5093 19.304 21.7384 22.8863 17.8989 24.1134Z" fill="white"/>
<defs>
<linearGradient id="paint0_linear" x1="15" y1="0" x2="15" y2="30" gradientUnits="userSpaceOnUse">
<stop stop-color="#24FE41"/>
<stop offset="1" stop-color="#27DD9B"/>
</linearGradient>
</defs>
</svg>
