<svg width="31" height="30" viewBox="0 0 31 30" fill="none" xmlns="http://www.w3.org/2000/svg">
<circle cx="15.4907" cy="15" r="15" fill="#6EA3E6" fill-opacity="0.5"/>
<path d="M15.7599 7.93872C15.3599 7.93872 15.2265 8.17872 14.9599 8.41872L7.22653 19.8187C7.0932 19.9387 7.0932 20.1787 7.0932 20.2987C7.0932 20.8987 7.62653 21.1387 8.02653 21.1387H23.4932C24.0265 21.1387 24.4265 20.8987 24.4265 20.2987C24.4265 20.0587 24.4265 20.0587 24.2932 19.8187L16.6932 8.41872C16.4265 8.17872 16.1599 7.93872 15.7599 7.93872ZM15.7599 9.73872L20.1599 16.3387H19.0932L17.0932 14.5387L15.7599 16.3387L14.4265 14.5387L12.4265 16.3387H11.2265L15.7599 9.73872Z" fill="url(#paint0_linear)"/>
<defs>
<linearGradient id="paint0_linear" x1="15.7599" y1="7.93872" x2="15.7599" y2="21.1387" gradientUnits="userSpaceOnUse">
<stop stop-color="#7CB4F9"/>
<stop offset="1" stop-color="#6DA2E4"/>
</linearGradient>
</defs>
</svg>
